<svg width="36" height="26" viewBox="0 0 36 26" fill="none" xmlns="http://www.w3.org/2000/svg">
<g filter="url(#filter0_d_12_6)">
<path d="M30.7742 1.70313V9.20313C30.7742 9.38961 30.7001 9.56845 30.5682 9.70031C30.4364 9.83217 30.2575 9.90625 30.0711 9.90625C29.8846 9.90625 29.7057 9.83217 29.5739 9.70031C29.442 9.56845 29.3679 9.38961 29.3679 9.20313V3.40234L19.3132 13.4453C19.2498 13.512 19.1734 13.565 19.0888 13.6013C19.0042 13.6376 18.9131 13.6563 18.8211 13.6563C18.729 13.6563 18.6379 13.6376 18.5533 13.6013C18.4687 13.565 18.3924 13.512 18.3289 13.4453L14.1336 9.26172L6.18825 17.1953C6.12361 17.2599 6.04688 17.3112 5.96243 17.3462C5.87798 17.3812 5.78747 17.3992 5.69606 17.3992C5.60465 17.3992 5.51414 17.3812 5.42969 17.3462C5.34524 17.3112 5.26851 17.2599 5.20387 17.1953C5.13924 17.1307 5.08796 17.0539 5.05298 16.9695C5.018 16.885 5 16.7945 5 16.7031C5 16.6117 5.018 16.5212 5.05298 16.4368C5.08796 16.3523 5.13924 16.2756 5.20387 16.2109L13.6414 7.77344C13.7049 7.70678 13.7812 7.65372 13.8658 7.61746C13.9504 7.5812 14.0415 7.5625 14.1336 7.5625C14.2256 7.5625 14.3167 7.5812 14.4013 7.61746C14.4859 7.65372 14.5623 7.70678 14.6257 7.77344L18.8211 11.957L28.3718 2.40625H22.5711C22.3846 2.40625 22.2057 2.33217 22.0739 2.20031C21.942 2.06845 21.8679 1.88961 21.8679 1.70313C21.8679 1.51664 21.942 1.3378 22.0739 1.20594C22.2057 1.07408 22.3846 1 22.5711 1H30.0711C30.2575 1 30.4364 1.07408 30.5682 1.20594C30.7001 1.3378 30.7742 1.51664 30.7742 1.70313Z" fill="white"/>
<path d="M30.7742 1.70313V9.20313C30.7742 9.38961 30.7001 9.56845 30.5682 9.70031C30.4364 9.83217 30.2575 9.90625 30.0711 9.90625C29.8846 9.90625 29.7057 9.83217 29.5739 9.70031C29.442 9.56845 29.3679 9.38961 29.3679 9.20313V3.40234L19.3132 13.4453C19.2498 13.512 19.1734 13.565 19.0888 13.6013C19.0042 13.6376 18.9131 13.6563 18.8211 13.6563C18.729 13.6563 18.6379 13.6376 18.5533 13.6013C18.4687 13.565 18.3924 13.512 18.3289 13.4453L14.1336 9.26172L6.18825 17.1953C6.12361 17.2599 6.04688 17.3112 5.96243 17.3462C5.87798 17.3812 5.78747 17.3992 5.69606 17.3992C5.60465 17.3992 5.51414 17.3812 5.42969 17.3462C5.34524 17.3112 5.26851 17.2599 5.20387 17.1953C5.13924 17.1307 5.08796 17.0539 5.05298 16.9695C5.018 16.885 5 16.7945 5 16.7031C5 16.6117 5.018 16.5212 5.05298 16.4368C5.08796 16.3523 5.13924 16.2756 5.20387 16.2109L13.6414 7.77344C13.7049 7.70678 13.7812 7.65372 13.8658 7.61746C13.9504 7.5812 14.0415 7.5625 14.1336 7.5625C14.2256 7.5625 14.3167 7.5812 14.4013 7.61746C14.4859 7.65372 14.5623 7.70678 14.6257 7.77344L18.8211 11.957L28.3718 2.40625H22.5711C22.3846 2.40625 22.2057 2.33217 22.0739 2.20031C21.942 2.06845 21.8679 1.88961 21.8679 1.70313C21.8679 1.51664 21.942 1.3378 22.0739 1.20594C22.2057 1.07408 22.3846 1 22.5711 1H30.0711C30.2575 1 30.4364 1.07408 30.5682 1.20594C30.7001 1.3378 30.7742 1.51664 30.7742 1.70313Z" stroke="white"/>
</g>
<defs>
<filter id="filter0_d_12_6" x="0.5" y="0.5" width="34.7742" height="25.3992" filterUnits="userSpaceOnUse" color-interpolation-filters="sRGB">
<feFlood flood-opacity="0" result="BackgroundImageFix"/>
<feColorMatrix in="SourceAlpha" type="matrix" values="0 0 0 0 0 0 0 0 0 0 0 0 0 0 0 0 0 0 127 0" result="hardAlpha"/>
<feOffset dy="4"/>
<feGaussianBlur stdDeviation="2"/>
<feComposite in2="hardAlpha" operator="out"/>
<feColorMatrix type="matrix" values="0 0 0 0 0 0 0 0 0 0 0 0 0 0 0 0 0 0 0.25 0"/>
<feBlend mode="normal" in2="BackgroundImageFix" result="effect1_dropShadow_12_6"/>
<feBlend mode="normal" in="SourceGraphic" in2="effect1_dropShadow_12_6" result="shape"/>
</filter>
</defs>
</svg>
